<svg xmlns="http://www.w3.org/2000/svg" width="149.16" height="22.049" viewBox="0 0 149.16 22.049">
    <defs>
        <linearGradient id="linear-gradient" x1=".5" x2=".5" y2="1" gradientUnits="objectBoundingBox">
            <stop offset="0" stop-color="#04cfd2"/>
            <stop offset="1" stop-color="#027e80"/>
        </linearGradient>
        <style>
            .cls-1{fill:url(#linear-gradient)}.cls-2{fill:#e5e7eb}
        </style>
    </defs>
    <g id="arn_logo" transform="translate(-272 -58.429)">
        <g id="Group_5504" transform="translate(272 58.733)">
            <path id="Path_9869" d="M3450.263 770.234a3.519 3.519 0 0 1 .526-.1c3.93.023 7.862.007 11.791.088a11.076 11.076 0 0 1 1.765.17 9.858 9.858 0 0 1 3.887 1.565 6.015 6.015 0 0 1-.007 10.206 12.956 12.956 0 0 1-6.833 1.882 2.8 2.8 0 0 1-3.013-1.629c-.779-1.44-1.554-2.51-2.548-4.025.642.033.888.036 1.294.032 1.557-.016 2.916.062 4.47-.024 1.759-.1 1.991-.5 2.015-1.3.025-.822-.282-1.312-1.914-1.273-2.184.052-4.369.11-6.554.109-.684 0-1.064.076-1.416-.474-1.097-1.724-2.247-3.404-3.463-5.227z" class="cls-1" transform="translate(-3435.637 -770.13)"/>
            <path id="Path_9870" d="M3360.358 777.511l14.053 21.445c-2.245 0-4.3.016-6.35-.023-.212 0-.473-.3-.618-.519q-5.027-7.631-10.016-15.288a1.086 1.086 0 0 1-.111-.929c.95-1.542 1.964-3.044 3.042-4.686z" class="cls-1" transform="translate(-3346.296 -777.219)"/>
            <path id="Path_9871" d="M3079.659 939.28l10.279-15.684c1.09 1.672 2.121 3.223 3.1 4.8a.913.913 0 0 1-.135.755q-3.124 4.816-6.3 9.6a1.121 1.121 0 0 1-.726.5c-1.996.049-4.002.029-6.218.029z" class="cls-1" transform="translate(-3079.659 -917.54)"/>
            <path id="Path_9872" d="M3709.83 1137.591c-2.093 0-3.994.008-5.895-.013a.772.772 0 0 1-.553-.29c-1.453-2.21-2.885-4.434-4.367-6.725 1.5-.121 2.876-.174 4.24-.357 1.608-.216 1.6-.264 2.478 1.083z" class="cls-1" transform="translate(-3674.572 -1115.884)"/>
        </g>
        <g id="Group_6525" transform="translate(317.449 66.241)">
            <path id="Path_13761" d="M90.722-47.838a.749.749 0 0 0-.757-.521h-1.24a.748.748 0 0 0-.756.52l-4.811 12.557-.041.239a.513.513 0 0 0 .16.375.517.517 0 0 0 .374.159h.93a.659.659 0 0 0 .621-.423l1.029-2.7h6.209l1.046 2.689a.646.646 0 0 0 .209.288.62.62 0 0 0 .414.141h.91a.55.55 0 0 0 .38-.155.508.508 0 0 0 .171-.406l-.046-.239zm1.063 8.31H86.9l2.44-6.395z" class="cls-2" transform="translate(-83.117 48.553)"/>
            <path id="Path_13762" d="M115.666-40.339a3.9 3.9 0 0 0 1.948-1.315 3.99 3.99 0 0 0 .767-2.511 3.848 3.848 0 0 0-1.3-3.125 5.427 5.427 0 0 0-3.551-1.069h-4.73a.545.545 0 0 0-.418.173.625.625 0 0 0-.155.438V-35.1a.6.6 0 0 0 .155.418.544.544 0 0 0 .418.174h.93a.61.61 0 0 0 .429-.165.558.558 0 0 0 .183-.427v-4.89h3.216l2.8 4.88a1.415 1.415 0 0 0 .336.431.837.837 0 0 0 .549.17h.852a.516.516 0 0 0 .375-.16.517.517 0 0 0 .159-.374.637.637 0 0 0-.078-.287zm.563-3.845c0 1.557-.908 2.313-2.778 2.313h-3.107V-46.5h3.107c1.869 0 2.778.76 2.778 2.315z" class="cls-2" transform="translate(-93.492 48.553)"/>
            <path id="Path_13763" d="M140.35-48.359h-.871a.579.579 0 0 0-.424.168.6.6 0 0 0-.169.443v9.3l-6.229-9.592a1.469 1.469 0 0 0-.215-.214.6.6 0 0 0-.382-.11h-.852a.546.546 0 0 0-.418.173.627.627 0 0 0-.154.438V-35.1a.6.6 0 0 0 .154.418.544.544 0 0 0 .418.174h.891a.573.573 0 0 0 .423-.169.572.572 0 0 0 .17-.423v-9.231l6.21 9.471a.624.624 0 0 0 .6.352h.872a.56.56 0 0 0 .427-.183.61.61 0 0 0 .165-.429v-12.627a.6.6 0 0 0-.169-.443.6.6 0 0 0-.447-.169z" class="cls-2" transform="translate(-102.749 48.553)"/>
            <path id="Path_13764" d="M162.887-47.293a5.472 5.472 0 0 0-3.936-1.4 5.513 5.513 0 0 0-3.946 1.4 5.657 5.657 0 0 0-1.546 4.091c-.014.374-.02.908-.02 1.632s.006 1.264.02 1.65a5.717 5.717 0 0 0 1.5 4.1 5.542 5.542 0 0 0 3.995 1.368 5.506 5.506 0 0 0 3.985-1.369 5.741 5.741 0 0 0 1.487-4.1c.026-.789.039-1.33.039-1.651s-.013-.869-.039-1.632a5.679 5.679 0 0 0-1.539-4.089zm-7.275 4.177a4.014 4.014 0 0 1 .955-2.787 3.219 3.219 0 0 1 2.384-.9 3.19 3.19 0 0 1 2.374.9 4.111 4.111 0 0 1 .965 2.788c.026.76.039 1.265.039 1.545 0 .253-.013.758-.039 1.543a4.071 4.071 0 0 1-.965 2.778 3.205 3.205 0 0 1-2.375.9 3.231 3.231 0 0 1-2.394-.9 4 4 0 0 1-.945-2.778c-.014-.384-.02-.889-.02-1.544s.009-1.173.021-1.544z" class="cls-2" transform="translate(-112.169 48.689)"/>
            <path id="Path_13765" d="M185.866-36.43h-6.322v-11.337a.6.6 0 0 0-.155-.42.545.545 0 0 0-.417-.173H178a.546.546 0 0 0-.418.173.6.6 0 0 0-.154.419V-35.1a.6.6 0 0 0 .154.418.544.544 0 0 0 .418.174h7.864a.606.606 0 0 0 .428-.165.557.557 0 0 0 .183-.427v-.736a.576.576 0 0 0-.17-.424.6.6 0 0 0-.439-.17z" class="cls-2" transform="translate(-122.08 48.553)"/>
            <path id="Path_13766" d="M204.995-47.293a5.475 5.475 0 0 0-3.937-1.4 5.512 5.512 0 0 0-3.945 1.4 5.659 5.659 0 0 0-1.546 4.091c-.013.374-.019.908-.019 1.632s.006 1.264.019 1.65a5.717 5.717 0 0 0 1.5 4.1 5.539 5.539 0 0 0 3.994 1.368 5.506 5.506 0 0 0 3.986-1.369 5.743 5.743 0 0 0 1.487-4.1c.026-.789.039-1.33.039-1.651s-.012-.869-.039-1.632a5.682 5.682 0 0 0-1.539-4.089zm-7.275 4.177a4.017 4.017 0 0 1 .955-2.787 3.221 3.221 0 0 1 2.384-.9 3.19 3.19 0 0 1 2.375.9 4.111 4.111 0 0 1 .965 2.788c.026.76.039 1.265.039 1.545 0 .253-.012.758-.039 1.543a4.071 4.071 0 0 1-.965 2.778 3.205 3.205 0 0 1-2.375.9 3.231 3.231 0 0 1-2.394-.9 4.008 4.008 0 0 1-.945-2.778c-.013-.384-.019-.889-.019-1.544s.005-1.173.018-1.544z" class="cls-2" transform="translate(-129.565 48.689)"/>
            <path id="Path_13767" d="M229.212-42.3h-4.338a.562.562 0 0 0-.427.182.61.61 0 0 0-.165.43v.581a.608.608 0 0 0 .164.428.561.561 0 0 0 .428.183h2.816v.686a3.356 3.356 0 0 1-.94 2.593 3.638 3.638 0 0 1-2.535.862 3.42 3.42 0 0 1-2.455-.85 3.73 3.73 0 0 1-.942-2.669c-.014-.383-.02-.945-.02-1.718s.006-1.348.02-1.719a3.7 3.7 0 0 1 .942-2.649 3.419 3.419 0 0 1 2.455-.85 3.554 3.554 0 0 1 2.159.59 3.018 3.018 0 0 1 1.092 1.463.842.842 0 0 0 .2.349.52.52 0 0 0 .36.116h1.084a.571.571 0 0 0 .376-.141.48.48 0 0 0 .178-.373v-.046a3.321 3.321 0 0 0-.664-1.673 5.033 5.033 0 0 0-1.834-1.527 6.321 6.321 0 0 0-2.954-.637 5.51 5.51 0 0 0-4.025 1.427 5.449 5.449 0 0 0-1.525 3.847c-.014.374-.02.971-.02 1.826s.006 1.438.02 1.826a5.6 5.6 0 0 0 1.534 3.875 5.453 5.453 0 0 0 4.016 1.437 6.4 6.4 0 0 0 2.992-.666 4.611 4.611 0 0 0 1.95-1.9 5.848 5.848 0 0 0 .666-2.83v-1.839a.6.6 0 0 0-.168-.443.6.6 0 0 0-.44-.171z" class="cls-2" transform="translate(-139.107 48.689)"/>
            <path id="Path_13768" d="M251.493-48.2a.551.551 0 0 0-.38-.154h-.93a.712.712 0 0 0-.629.4l-3.69 6.125-3.7-6.112a.668.668 0 0 0-.636-.413h-.93a.517.517 0 0 0-.376.159.517.517 0 0 0-.159.374.705.705 0 0 0 .079.327l4.647 7.848v4.55a.575.575 0 0 0 .168.423.576.576 0 0 0 .424.17h.93a.6.6 0 0 0 .443-.169.577.577 0 0 0 .169-.423v-4.55l4.652-7.857a.745.745 0 0 0 .093-.317.5.5 0 0 0-.175-.381z" class="cls-2" transform="translate(-147.955 48.553)"/>
        </g>
        <path id="Rectangle_2324" fill="#d1d5db" d="M0 0H0.587V21.745H0z" transform="translate(311.907 58.429)"/>
        <path id="Path_13769" d="M205.126-43.73a.294.294 0 0 0-.293.293v2.937a.294.294 0 0 0 .293.293.294.294 0 0 0 .293-.293v-2.933a.294.294 0 0 0-.293-.297z" class="cls-2" transform="translate(184.095 113.184)"/>
    </g>
</svg>
